<svg width="167" height="48" viewBox="0 0 167 48" fill="none" xmlns="http://www.w3.org/2000/svg">
<path d="M153.807 3.10793e-07H142.947C141.521 -0.000340911 140.108 0.280294 138.791 0.825882C137.473 1.37147 136.275 2.17132 135.267 3.17975C134.258 4.18818 133.458 5.38544 132.912 6.70314C132.366 8.02085 132.085 9.43318 132.085 10.8595V21.719C132.086 24.0227 133.002 26.2316 134.631 27.8605C136.26 29.4895 138.469 30.4052 140.773 30.4066C140.773 29.2543 141.231 28.1494 142.046 27.3349C142.862 26.5203 143.967 26.0628 145.119 26.0628H153.807C157.263 26.0628 160.577 24.6898 163.021 22.246C165.465 19.8021 166.838 16.4875 166.838 13.0314C166.838 9.57525 165.465 6.26066 163.021 3.8168C160.577 1.37294 157.263 3.83625e-07 153.807 3.10793e-07ZM151.333 16.4139L146.854 19.0483C146.624 19.1819 146.362 19.2518 146.096 19.2509C145.335 19.2509 144.719 18.7079 144.719 18.0377V8.33167C144.719 7.6614 145.335 7.11842 146.096 7.11842C146.345 7.11818 146.591 7.18072 146.81 7.30028L151.336 9.958L151.333 16.4139ZM155.103 14.1979L152.063 15.9853V10.3841L155.103 12.1689C155.29 12.2636 155.448 12.4085 155.558 12.5873C155.668 12.7662 155.726 12.9721 155.726 13.1821C155.726 13.3921 155.668 13.5979 155.558 13.7768C155.448 13.9557 155.29 14.1005 155.103 14.1953V14.1979Z" fill="white"/>
<path d="M2.847 28.775H0.799805V25.2704H11.0306C15.2185 25.2704 18.1464 28.1983 18.1464 32.5447C18.1464 36.8911 15.2185 39.9125 11.0306 39.9125H6.96997V47.6233H2.847V28.775ZM10.285 36.3845C12.6231 36.3845 13.9377 34.8725 13.9377 32.5421C13.9377 30.2117 12.6049 28.775 10.3395 28.775H6.96217V36.3949L10.285 36.3845Z" fill="white"/>
<path d="M21.2304 35.6597C21.2432 35.5658 21.2342 35.4702 21.204 35.3804C21.1739 35.2906 21.1234 35.2089 21.0565 35.1418C20.9896 35.0747 20.9082 35.0239 20.8185 34.9934C20.7288 34.9629 20.6332 34.9535 20.5393 34.966H19.2793V31.5679H22.9294C24.3479 31.5679 25.0702 32.1654 25.0702 33.5189V34.4646C25.0724 34.8008 25.0516 35.1367 25.0078 35.47H25.0702C25.795 33.1734 27.7149 31.347 30.17 31.347C30.4128 31.3508 30.6549 31.3716 30.8948 31.4094V35.3453C30.571 35.3024 30.2446 35.2816 29.9179 35.283C28.2189 35.283 26.2808 36.2572 25.543 38.6603C25.3094 39.5117 25.1931 40.391 25.1975 41.2739V47.6311H21.2304V35.6597Z" fill="white"/>
<path d="M40.621 31.1886C45.5311 31.1886 49.4359 34.6829 49.4359 39.5956C49.4359 44.5084 45.5389 48 40.621 48C35.703 48 31.8477 44.5369 31.8477 39.5956C31.8477 34.6543 35.7446 31.1886 40.621 31.1886ZM40.621 44.5993C43.2345 44.5993 45.4064 42.5859 45.4064 39.5956C45.4064 36.6054 43.2345 34.5893 40.621 34.5893C38.0074 34.5893 35.8667 36.6365 35.8667 39.5956C35.8667 42.5547 38.0386 44.5993 40.621 44.5993Z" fill="white"/>
<path d="M59.3193 31.5055C63.6007 31.5055 65.7415 34.8828 65.7415 38.6811C65.7415 39.0292 65.6791 39.5306 65.6791 39.5306H53.0556C53.0556 44.0952 56.142 46.7088 59.7921 46.7088C61.6119 46.695 63.3574 45.9858 64.6711 44.7265L65.3959 45.8281C63.8513 47.2045 61.8609 47.9759 59.7921 48C55.3548 48 51.6709 44.7889 51.6709 39.7826C51.6709 34.4646 55.2898 31.5055 59.3193 31.5055ZM64.3567 38.3044C64.1983 34.4646 61.9017 32.7317 59.2881 32.7317C56.3914 32.7317 53.7181 34.6204 53.1491 38.3044H64.3567Z" fill="white"/>
<path d="M68.638 33.771C68.6504 33.677 68.6409 33.5814 68.6105 33.4916C68.58 33.4018 68.5293 33.3202 68.4622 33.2532C68.3951 33.1861 68.3136 33.1354 68.2238 33.1049C68.134 33.0744 68.0384 33.065 67.9443 33.0774H66.5908V31.8927H68.134C69.433 31.8927 69.9526 32.4279 69.9526 33.6229V34.4906C69.9526 35.2129 69.8903 35.7896 69.8903 35.7896H69.9526C70.4878 34.3088 72.6285 31.5082 76.5618 31.5082C80.6562 31.5082 81.7577 33.9321 81.7577 37.6446V45.7346C81.7449 45.8285 81.7539 45.9241 81.7841 46.0139C81.8142 46.1037 81.8647 46.1854 81.9316 46.2525C81.9985 46.3196 82.0799 46.3704 82.1696 46.4009C82.2593 46.4314 82.3549 46.4408 82.4488 46.4283H83.8075V47.6234H82.2669C80.9679 47.6234 80.4484 47.0908 80.4484 45.8048V38.1278C80.4484 35.3895 80.1002 32.8072 76.5748 32.8072C73.6157 32.8072 71.0048 34.8855 70.2176 37.8134C70.0322 38.5115 69.9448 39.232 69.9578 39.9542V47.6337H68.6354L68.638 33.771Z" fill="white"/>
<path d="M91.9622 31.5055C96.2437 31.5055 98.3844 34.8828 98.3844 38.6811C98.3844 39.0292 98.322 39.5306 98.322 39.5306H85.6985C85.6985 44.0952 88.7849 46.7088 92.435 46.7088C94.2557 46.6956 96.0023 45.9864 97.3166 44.7265L98.0415 45.8281C96.4968 47.2045 94.5065 47.9759 92.4376 48C88.0003 48 84.3164 44.7889 84.3164 39.7826C84.3268 34.4646 87.9328 31.5055 91.9622 31.5055ZM96.9997 38.3044C96.8438 34.4646 94.5446 32.7317 91.9311 32.7317C89.0343 32.7317 86.361 34.6204 85.7921 38.3044H96.9997Z" fill="white"/>
<path d="M101.282 33.771C101.294 33.677 101.285 33.5814 101.254 33.4916C101.224 33.4018 101.173 33.3202 101.106 33.2532C101.039 33.1861 100.957 33.1354 100.867 33.1049C100.778 33.0744 100.682 33.065 100.588 33.0774H99.2344V31.8927H100.778C102.077 31.8927 102.596 32.4279 102.596 33.6229V34.4906C102.596 35.2129 102.534 35.7896 102.534 35.7896H102.596C103.376 33.4281 106.122 31.5082 108.571 31.5082C111.72 31.5082 113.198 32.9864 113.547 35.7896H113.609C114.49 33.4281 116.882 31.5082 119.584 31.5082C123.645 31.5082 124.842 33.8983 124.842 37.6446V45.7346C124.83 45.8285 124.839 45.9241 124.869 46.0139C124.899 46.1037 124.95 46.1854 125.016 46.2525C125.083 46.3196 125.165 46.3704 125.254 46.4009C125.344 46.4314 125.44 46.4408 125.534 46.4283H126.887V47.6234H125.375C124.076 47.6234 123.557 47.0908 123.557 45.8048V38.1278C123.557 35.1687 122.956 32.7448 119.621 32.7448C117.007 32.7448 114.773 35.083 114.082 37.5303C113.856 38.3179 113.749 39.1349 113.765 39.9542V47.6337H112.442V38.1278C112.442 35.4207 112.066 32.7448 108.603 32.7448C105.802 32.7448 103.599 35.1999 102.887 37.8134C102.702 38.5115 102.614 39.232 102.627 39.9542V47.6337H101.305L101.282 33.771Z" fill="white"/>
</svg>
